 <svg version="1.0" xmlns="http://www.w3.org/2000/svg" width="700.000000pt" height="700.000000pt" viewBox="0 0 700.000000 700.000000" preserveAspectRatio="xMidYMid meet">
<metadata>
Created by potrace 1.12, written by Peter Selinger 2001-2015
</metadata>
<g transform="translate(0.000000,700.000000) scale(0.100000,-0.100000)" fill="#000000" stroke="none">
<path d="M532 4353 c3 -16 20 -19 138 -23 74 -3 140 -8 147 -13 6 -4 37 -46
68 -95 32 -48 66 -99 76 -114 11 -15 20 -38 22 -50 l2 -23 -205 -6 c-113 -3
-206 -6 -207 -7 -10 -7 3 -29 40 -68 23 -25 167 -171 320 -324 l277 -279 0
-323 c0 -185 -4 -329 -10 -338 -7 -12 -39 -16 -147 -20 -114 -4 -138 -8 -138
-20 0 -13 44 -15 328 -18 309 -2 328 -1 325 15 -3 16 -19 18 -148 21 -100 2
-147 6 -152 15 -4 7 -8 160 -8 341 l0 329 220 219 c121 121 226 218 233 215 7
-2 44 -12 84 -22 68 -17 74 -17 130 0 85 26 157 101 173 181 29 136 -22 241
-145 300 -67 32 -145 32 -203 1 -57 -30 -117 -90 -132 -130 -6 -17 -17 -43
-24 -57 l-12 -25 -260 -3 -261 -2 -41 60 c-23 33 -42 64 -42 67 0 4 -17 32
-37 62 -20 31 -48 74 -62 96 -14 22 -30 43 -36 47 -5 4 -79 8 -163 8 -141 0
-153 -1 -150 -17z m1404 -149 c151 -62 173 -251 42 -357 -29 -23 -51 -31 -92
-35 -70 -6 -126 5 -126 23 0 8 34 49 75 92 41 42 75 81 75 85 0 19 -46 28
-138 28 -124 0 -137 9 -102 73 28 49 41 61 95 87 50 23 121 25 171 4z m-901
-222 c26 -18 55 -67 55 -92 0 -14 -7 -48 -16 -73 -15 -46 -15 -49 8 -94 30
-61 59 -81 133 -93 46 -7 64 -16 78 -35 20 -26 41 -32 52 -15 4 6 2 16 -3 23
-19 22 -17 52 7 100 34 70 25 128 -29 182 -39 39 -42 40 -112 41 -75 0 -98 13
-85 48 6 14 40 16 334 16 183 0 334 -4 343 -10 12 -7 11 -12 -5 -31 -59 -66
-549 -549 -557 -549 -13 0 -568 555 -568 567 0 5 3 13 7 16 9 9 345 9 358 -1z
m228 -110 c38 -26 56 -52 57 -85 0 -42 -25 -82 -64 -101 -41 -19 -69 -14 -111
20 -26 21 -30 30 -30 74 0 41 5 54 25 73 45 41 80 47 123 19z"></path>
<path d="M1792 3326 l-37 -34 -3 -261 c-3 -230 -1 -265 14 -297 24 -51 66 -74
134 -74 80 0 124 32 139 100 15 70 14 90 -5 97 -22 8 -44 -22 -44 -62 0 -55
-57 -89 -123 -72 -27 7 -41 17 -48 35 -6 15 -9 128 -7 270 3 243 3 244 27 263
28 23 71 24 110 4 34 -17 41 -33 41 -90 0 -56 8 -75 31 -75 32 0 39 39 23 114
-22 93 -51 116 -145 116 -65 0 -72 -2 -107 -34z"></path>
<path d="M2245 3324 c-29 -32 -34 -45 -40 -110 -4 -41 -6 -164 -3 -275 l4
-201 41 -39 c40 -37 46 -39 105 -39 78 0 106 14 135 65 22 39 23 49 23 288 0
269 -3 284 -56 326 -22 17 -41 21 -101 21 -74 0 -76 -1 -108 -36z m176 -35
l29 -20 0 -250 c0 -147 -4 -258 -10 -269 -16 -30 -72 -43 -119 -29 -36 11 -42
17 -52 52 -10 37 -10 413 -1 480 8 54 98 75 153 36z"></path>
<path d="M2720 3332 c-40 -40 -50 -105 -50 -326 0 -290 20 -337 151 -344 l70
-4 40 42 c38 40 40 44 37 98 -3 49 -6 57 -23 57 -16 0 -22 -10 -30 -50 -13
-64 -18 -71 -61 -85 -27 -9 -42 -9 -65 0 -54 23 -59 46 -59 292 0 123 3 233 6
246 12 43 85 65 139 40 27 -12 31 -22 43 -108 6 -47 11 -55 30 -58 21 -3 22 0
22 72 0 73 -1 77 -36 116 -36 40 -37 40 -111 40 -68 0 -77 -2 -103 -28z"></path>
<path d="M3157 3353 c-13 -12 -8 -671 5 -679 26 -16 38 29 38 145 1 84 5 121
15 135 17 22 45 15 45 -12 0 -10 4 -22 9 -28 5 -5 28 -54 52 -109 45 -106 64
-135 86 -135 24 0 26 28 5 72 -64 135 -92 200 -92 212 0 8 -6 19 -14 25 -8 7
-17 30 -21 52 -7 41 -3 51 68 179 57 101 70 131 59 142 -19 19 -48 -2 -78 -59
-17 -32 -42 -81 -57 -109 -15 -28 -39 -61 -52 -74 l-25 -23 0 124 c0 84 -4
129 -12 137 -14 14 -22 15 -31 5z"></path>
<path d="M3559 3350 c-14 -8 -15 -43 -14 -287 3 -300 10 -349 53 -384 14 -11
40 -19 61 -19 71 0 109 50 118 158 5 56 3 70 -12 82 -33 27 -49 1 -55 -85 -6
-89 -19 -106 -67 -89 l-28 9 0 275 0 275 60 5 c59 5 60 6 60 35 l0 30 -80 2
c-44 2 -87 -1 -96 -7z"></path>
<path d="M3942 3325 c-39 -44 -53 -118 -28 -143 16 -16 18 -16 32 2 8 11 14
34 14 52 0 65 88 97 144 53 26 -21 27 -23 24 -127 l-3 -107 -83 -6 c-90 -7
-109 -17 -136 -74 -21 -44 -22 -204 -1 -245 39 -75 118 -92 194 -40 50 34 59
36 67 15 19 -48 24 12 24 264 0 303 -4 329 -56 370 -21 17 -41 21 -94 21 -65
0 -69 -2 -98 -35z m182 -341 c3 -9 6 -56 6 -106 0 -89 0 -90 -34 -124 -44 -44
-97 -49 -128 -12 -14 16 -18 39 -18 112 0 50 4 97 9 105 24 37 153 57 165 25z"></path>
<path d="M4382 3348 c-18 -18 -17 -637 1 -662 16 -22 47 -11 48 18 0 11 0 160
0 330 -1 238 -4 311 -13 318 -17 10 -22 10 -36 -4z"></path>
<path d="M4633 3353 c-10 -4 -13 -77 -13 -321 0 -174 3 -327 6 -339 6 -22 11
-23 99 -23 106 0 125 5 125 31 0 22 -20 28 -105 31 l-60 3 -3 305 c-2 323 -4
332 -49 313z"></path>
<path d="M5005 3338 c-55 -43 -71 -137 -36 -206 10 -20 41 -62 68 -92 84 -96
108 -123 119 -134 23 -24 34 -56 34 -100 0 -63 -24 -86 -90 -86 -63 0 -83 21
-90 92 -6 61 -32 86 -56 53 -25 -34 2 -140 46 -180 18 -16 36 -20 102 -20 79
0 80 0 114 37 32 35 34 42 34 105 0 82 -13 104 -147 254 -92 102 -93 103 -93
155 0 45 4 56 26 73 32 25 74 27 114 6 28 -14 30 -20 30 -69 0 -70 7 -86 35
-86 30 0 39 27 30 88 -15 101 -49 132 -146 132 -53 0 -72 -4 -94 -22z"></path>
</g>
</svg>